<svg width="25" height="37.5" viewBox="0 0 56 75" fill="none" xmlns="http://www.w3.org/2000/svg">
<path d="M4.10901 54.3652C4.97401 55.2302 10.956 57.5092 11.642 57.2352C11.9613 57.8108 12.3209 58.3632 12.718 58.8882C13.194 59.1242 6.27201 56.9612 4.10901 54.3652Z" fill="#2F4059" stroke="#FAF8F5" stroke-width="5"/>
<path d="M9.9579 59.0272C8.8519 57.2462 7.85796 52.4142 7.85096 51.4472C7.84396 50.4802 11.6879 56.0313 15.1799 57.7473L9.9579 59.0272Z" fill="#2F4059" stroke="#FAF8F5" stroke-width="5"/>
<path d="M45.038 59.5866C46.204 57.8436 47.3639 53.0496 47.4019 52.0866C47.4399 51.1236 43.3919 56.5866 39.8429 58.1866L45.038 59.5866Z" fill="#2F4059" stroke="#FAF8F5" stroke-width="5"/>
<path d="M45.03 33.524C44.597 41.744 43.7301 43.041 42.4301 43.907C44.1601 27.035 25.13 22.276 32.48 8C22.963 14.057 18.636 17.085 17.771 36.12C15.171 34.82 14.31 29.631 16.041 24.439C10.417 30.928 6.09094 44.339 13.0129 52.126C9.98494 49.963 7.82202 46.502 7.82202 45.637C7.82202 50.828 10.422 66.402 27.722 66.402C45.022 66.402 51.519 48.233 45.03 33.524Z" fill="#73D9EA" stroke="#FAF8F5" stroke-width="5"/>
<path d="M51.951 54.29C51.086 55.155 45.1039 57.434 44.4179 57.159C44.0986 57.735 43.7391 58.2876 43.342 58.813C42.866 59.049 49.788 56.886 51.951 54.29Z" fill="#2F4059" stroke="#FAF8F5" stroke-width="5"/>
<path d="M51.9519 54.2851C47.0979 58.8361 38.4849 60.1311 33.4249 60.2451C31.9447 56.191 30.0339 52.3075 27.725 48.6611C25.4224 52.2982 23.5435 56.1868 22.125 60.2511C17.394 60.1871 8.968 58.9331 4 54.2761C5.667 62.6081 16.9599 69.3341 24.3619 71.3651C25.5691 71.836 26.8587 72.0595 28.1539 72.0221C29.4264 72.067 30.6923 71.8193 31.854 71.2981C39.262 69.1851 50.3059 62.5221 51.9519 54.2851Z" fill="#3B4D71" stroke="#FAF8F5" stroke-width="5"/>
<path d="M6.02905 54.0254C6.82905 54.8254 12.3291 56.9164 12.9561 56.6644C13.2495 57.1938 13.58 57.7017 13.9451 58.1844C14.3831 58.4014 8.01805 56.4124 6.02905 54.0254Z" fill="#2F4059"/>
<path d="M11.4081 58.3127C10.3894 56.1094 9.73492 53.7555 9.4701 51.3427C9.4651 50.4527 12.9981 55.5567 16.2101 57.1427L11.4081 58.3127Z" fill="#2F4059"/>
<path d="M43.6631 58.8289C44.7564 56.6616 45.4908 54.3313 45.838 51.9289C45.873 51.0399 42.15 56.0649 38.886 57.5369L43.6631 58.8289Z" fill="#2F4059"/>
<path d="M43.66 34.8616C43.26 42.4206 42.4661 43.6136 41.2731 44.4096C42.8641 28.8946 25.36 24.5186 32.123 11.3906C23.371 16.9596 19.393 19.7446 18.597 37.2486C16.21 36.0556 15.4141 31.2816 17.0061 26.5076C11.8341 32.4746 7.85607 44.8076 14.2211 51.9686C11.4361 49.9796 9.44702 46.7966 9.44702 46.0016C9.44702 50.7756 11.8341 65.1016 27.7471 65.1016C43.6601 65.1016 49.63 48.3876 43.66 34.8616Z" fill="#AF93BE"/>
<path d="M50.024 53.957C49.224 54.757 43.724 56.848 43.097 56.596C42.8035 57.1253 42.473 57.6333 42.108 58.116C41.671 58.333 48.036 56.343 50.024 53.957Z" fill="#2F4059"/>
<path d="M43.833 44.2977C42.052 50.4927 40.1251 50.1047 39.2581 50.6827C40.4141 39.4117 30.9901 29.1927 28.7631 21.7637C22.4051 25.8097 22.031 30.7287 21.453 43.4457C19.719 42.5787 14.1901 41.1717 15.3461 37.7037C12.2381 42.0517 14.6561 49.7887 17.3461 54.1317C16.1181 54.0147 12.5961 53.2477 12.5961 52.6697C12.5961 56.1377 17.888 64.6627 27.896 66.4817C37.183 63.1047 46.776 52.4297 43.833 44.2977Z" fill="#D0BCDB"/>
<path d="M28.319 60.9665V61.7105H37.3419C36.5149 60.6825 34.861 58.5905 34.861 58.4535C35.0746 57.686 35.0425 56.871 34.7692 56.1227C34.4958 55.3744 33.995 54.7305 33.337 54.2815H32.775C33.057 55.4045 33.418 57.7815 32.606 58.2815H32.267V57.4255H32.041L32.0969 47.4255L30.7429 44.7965L30.1229 37.2565H30.292V36.6275H30.067V34.2855L30.462 34.6855H30.745L32.323 32.7425V32.6845L31.0229 30.2275C31.0873 29.7445 31.0555 29.2535 30.9296 28.7828C30.8036 28.3121 30.5859 27.8709 30.2889 27.4845H30.007C30.0732 28.3402 30.0732 29.1998 30.007 30.0555L27.921 27.3125L26.061 30.0555C25.911 30.0935 25.836 29.3705 25.949 27.5415H25.666C25.3749 27.9188 25.1645 28.352 25.0482 28.8141C24.9319 29.2762 24.9121 29.7574 24.99 30.2275L23.635 32.6845V32.7425L25.214 34.6855H25.496L25.891 34.3425V36.6275H25.7219V37.2565H25.8939L25.271 44.7415L23.918 47.3715V57.4265H23.692V58.2835H23.241C23.0199 57.8934 22.8674 57.4682 22.79 57.0265C22.8089 56.0842 22.9225 55.1461 23.129 54.2265H22.5649C21.8319 54.8555 20.665 55.5265 20.986 58.4545L18.449 61.7105H27.134V60.9665C23.243 61.1385 25.104 57.4235 25.385 54.2815H30.1219C30.2929 57.5385 32.38 60.9095 28.319 60.9665Z" fill="#EADEF0"/>
<path d="M50.025 53.9565C45.561 58.1415 37.641 59.3324 32.988 59.4374C31.188 54.0964 27.7991 52.3984 27.7991 52.3984C27.7991 52.3984 24.299 54.0985 22.599 59.4435C18.248 59.3845 10.499 58.2315 5.93201 53.9485C7.46401 61.6105 17.85 67.7955 24.656 69.6635C26.9277 70.1682 29.2847 70.147 31.547 69.6014C38.356 67.6534 48.511 61.5275 50.025 53.9565Z" fill="#3B4D71"/>
</svg>
